<svg width="88" height="88" viewBox="0 0 88 88" fill="none" xmlns="http://www.w3.org/2000/svg">
<path d="M34.8313 28.4545H36.3913V26.8945H34.8313V28.4545ZM29.5664 28.4545V26.8945H29.1085L28.7232 27.1421L29.5664 28.4545ZM21.9748 33.3317L21.1316 32.0192L20.4148 32.4797V33.3317H21.9748ZM21.9748 38.4027H20.4148V41.2504L22.8146 39.7173L21.9748 38.4027ZM29.1189 33.8388V32.2788H28.6632L28.2791 32.5241L29.1189 33.8388ZM29.2979 33.8388H30.8579V32.2788H29.2979V33.8388ZM29.2979 59H27.7379V60.56H29.2979V59ZM34.8313 59V60.56H36.3913V59H34.8313ZM34.8313 26.8945H29.5664V30.0145H34.8313V26.8945ZM28.7232 27.1421L21.1316 32.0192L22.8179 34.6442L30.4096 29.767L28.7232 27.1421ZM20.4148 33.3317V38.4027H23.5348V33.3317H20.4148ZM22.8146 39.7173L29.9588 35.1534L28.2791 32.5241L21.1349 37.0881L22.8146 39.7173ZM29.1189 35.3988H29.2979V32.2788H29.1189V35.3988ZM27.7379 33.8388V59H30.8579V33.8388H27.7379ZM29.2979 60.56H34.8313V57.44H29.2979V60.56ZM36.3913 59V28.4545H33.2713V59H36.3913ZM55.9775 59.5817L55.9806 58.0217H55.9775V59.5817ZM44.2097 43.7571L42.6497 43.7548V43.7571H44.2097ZM49.8027 43.7571L48.2427 43.7539V43.7539L49.8027 43.7571ZM62.1671 43.7571H63.7271L63.7271 43.7539L62.1671 43.7571ZM55.9743 61.1417C60.1195 61.1501 63.5393 59.4923 65.8741 56.3672C68.1649 53.3007 69.3052 48.969 69.3052 43.7571H66.1852C66.1852 48.5679 65.1256 52.156 63.3745 54.4999C61.6673 56.785 59.2033 58.0282 55.9806 58.0217L55.9743 61.1417ZM69.3052 43.7571C69.3052 38.571 68.1557 34.2674 65.8586 31.2215C63.5193 28.1197 60.1022 26.4769 55.9775 26.4769V29.5969C59.1908 29.5969 61.6575 30.8327 63.3676 33.1002C65.1199 35.4236 66.1852 38.9801 66.1852 43.7571H69.3052ZM55.9775 26.4769C51.8536 26.4769 48.4397 28.1153 46.1018 31.2161C43.8067 34.26 42.6575 38.5632 42.6497 43.7548L45.7697 43.7594C45.7769 38.973 46.8425 35.4161 48.593 33.0945C50.3007 30.8296 52.7632 29.5969 55.9775 29.5969V26.4769ZM42.6497 43.7571C42.6497 48.9622 43.7903 53.2899 46.0809 56.356C48.4149 59.4802 51.8333 61.1417 55.9775 61.1417V58.0217C52.7537 58.0217 50.2883 56.7748 48.5804 54.4887C46.8291 52.1444 45.7697 48.5598 45.7697 43.7571H42.6497ZM55.9775 53.3534C54.7094 53.3534 53.6437 52.7664 52.8126 51.3127C51.9339 49.7759 51.3555 47.298 51.3627 43.7603L48.2427 43.7539C48.235 47.5543 48.8424 50.6545 50.104 52.8613C51.4132 55.1512 53.4422 56.4734 55.9775 56.4734V53.3534ZM51.3627 43.7603C51.3699 40.252 51.9508 37.7825 52.8293 36.2464C53.6614 34.7913 54.7221 34.2056 55.9775 34.2056V31.0856C53.4445 31.0856 51.4253 32.4165 50.1209 34.6975C48.8627 36.8976 48.2505 39.9838 48.2427 43.7539L51.3627 43.7603ZM55.9775 34.2056C57.2427 34.2056 58.3065 34.7937 59.1393 36.2474C60.0189 37.7829 60.5999 40.2519 60.6071 43.7603L63.7271 43.7539C63.7194 39.9839 63.1071 36.8971 61.8465 34.6965C60.539 32.4141 58.5155 31.0856 55.9775 31.0856V34.2056ZM60.6071 43.7571C60.6071 47.2969 60.0287 49.7754 59.1498 51.3127C58.3194 52.7652 57.2542 53.3534 55.9775 53.3534V56.4734C58.5189 56.4734 60.5485 55.1524 61.8584 52.8613C63.1197 50.655 63.7271 47.5554 63.7271 43.7571H60.6071Z" fill="#F26E22"/>
<rect x="1.11948" y="0.78" width="85.78" height="85.78" rx="8.58" stroke="#F26E22" stroke-width="1.56"/>
</svg>
