<svg width="88" height="88" viewBox="0 0 88 88" fill="none" xmlns="http://www.w3.org/2000/svg">
<path d="M37.5504 31.0128L38.3093 30.7493C41.7812 29.5437 45.5582 29.5437 49.0301 30.7493L49.789 31.0128C51.9354 31.7581 53.0711 34.1023 52.3258 36.2487C52.2502 36.4666 52.1563 36.6778 52.0453 36.8799C50.4995 39.6939 49.5702 42.8045 49.319 46.0052L49.0301 49.6877C45.6486 51.3451 41.6908 51.3451 38.3093 49.6877L38.0204 46.0052C37.7692 42.8045 36.8399 39.6939 35.2941 36.8799C34.2002 34.8885 34.9278 32.3873 36.9192 31.2934C37.1214 31.1823 37.3326 31.0885 37.5504 31.0128ZM28.4616 48.8876L32.6296 51.339C33.5508 51.8808 34.7362 51.5845 35.2941 50.673C35.9429 49.6131 36.948 48.8189 38.1292 48.433L38.3093 48.3741L38.1524 46.6823C37.814 43.0326 36.7286 39.4914 34.9639 36.2787L34.1216 34.7453L32.3809 35.4506C29.481 36.6255 27.1891 38.9372 26.0391 41.8471C25.0025 44.4702 26.0304 47.4576 28.4616 48.8876ZM25.4947 47.1426L26.7511 47.8815L29.2637 49.3593L30.4756 50.0721C31.1504 50.469 31.3869 51.3307 31.0092 52.0164L27.5886 58.2263C25.2654 55.3278 24.4223 51.5137 25.3074 47.906L25.4947 47.1426ZM58.8778 48.8876L54.7098 51.339C53.7886 51.8808 52.6032 51.5845 52.0453 50.673C51.3965 49.6131 50.3914 48.8189 49.2102 48.433L49.0301 48.3741L49.187 46.6823C49.5254 43.0326 50.6108 39.4914 52.3755 36.2787L53.2178 34.7453L54.9585 35.4506C57.8584 36.6255 60.1503 38.9372 61.3003 41.8471C62.3369 44.4702 61.309 47.4576 58.8778 48.8876ZM61.8447 47.1426L60.5883 47.8815L58.0757 49.3593L56.8638 50.0721C56.189 50.469 55.9525 51.3307 56.3302 52.0164L59.7508 58.2263C62.0741 55.3278 62.9171 51.5137 62.032 47.906L61.8447 47.1426Z" stroke="#E67240" stroke-width="1.55963" stroke-linejoin="round"/>
<rect x="0.779817" y="0.779817" width="85.7798" height="85.7798" rx="8.57798" stroke="#F26E22" stroke-width="1.55963"/>
</svg>
