<svg width="36" height="36" viewBox="0 0 36 36" fill="none" xmlns="http://www.w3.org/2000/svg">
<path d="M18 3.75C16.0208 3.75 9.9975 3.75 6.6675 6.7905C4.6845 8.766 3.75 11.6205 3.75 15.75V18C3.75 22.1295 4.6845 24.984 6.69075 26.982C7.68975 27.8933 9.05175 28.6215 10.7167 29.1248L11.25 29.2853V33.2812C11.25 33.75 11.3858 33.75 11.4308 33.75C11.523 33.75 11.6708 33.7208 11.9513 33.4718C12.0188 33.405 12.5138 32.8695 14.9213 30.1725L15.1642 29.9003L15.528 29.9235C16.3343 29.9737 17.166 30 18 30C19.9792 30 26.0025 30 29.3325 26.9587C31.3148 24.9832 32.25 22.1288 32.25 18V15.75C32.25 11.6205 31.3155 8.766 29.3092 6.768C26.0025 3.75 19.9792 3.75 18 3.75Z" fill="white"/>
<path d="M25.0883 21.6405C24.255 20.9385 23.8703 20.7263 22.7198 20.0355C22.2405 19.7483 21.51 19.5 21.1268 19.5C20.865 19.5 20.5515 19.7003 20.3595 19.8923C19.8675 20.3843 19.7063 21 18.8438 21C18 21 16.5263 20.1413 15.4688 19.0312C14.3588 17.9738 13.5 16.5 13.5 15.6562C13.5 14.7938 14.1045 14.6212 14.5965 14.1285C14.7885 13.9372 15 13.6237 15 13.362C15 12.9788 14.7518 12.2595 14.4645 11.7802C13.7738 10.629 13.5623 10.2442 12.8595 9.41175C12.6218 9.12975 12.351 9.00075 12.0675 9C11.5883 8.99925 10.959 9.237 10.533 9.55425C9.89252 10.032 9.22277 10.6822 9.04352 11.4922C9.01952 11.6025 9.00527 11.7135 9.00077 11.8245C8.96627 12.6682 9.29777 13.5247 9.65552 14.25C10.4978 15.9593 11.6123 17.6137 12.825 19.0912C13.2128 19.5637 13.635 20.0032 14.0723 20.4277C14.4968 20.8642 14.9363 21.2865 15.4088 21.675C16.8863 22.8877 18.5408 24.0022 20.25 24.8445C20.9685 25.1985 21.8145 25.524 22.65 25.5C22.7693 25.4963 22.8885 25.4828 23.0078 25.4565C23.8178 25.278 24.468 24.6075 24.9458 23.967C25.263 23.541 25.5008 22.9125 25.5 22.4325C25.4993 22.149 25.3703 21.8783 25.0883 21.6405ZM25.5 18C25.086 18 24.75 17.664 24.75 17.25V16.5C24.75 12.7785 21.7215 9.75 18 9.75C17.586 9.75 17.25 9.414 17.25 9C17.25 8.586 17.586 8.25 18 8.25C22.5488 8.25 26.25 11.9512 26.25 16.5V17.25C26.25 17.664 25.914 18 25.5 18ZM20.8935 16.5C20.5605 16.5 20.256 16.2765 20.1683 15.939C19.9628 15.1508 19.3478 14.535 18.5625 14.3325C18.1613 14.2283 17.9205 13.8195 18.024 13.4183C18.1275 13.0178 18.5355 12.777 18.9383 12.8798C20.2493 13.2195 21.2768 14.2462 21.6195 15.5602C21.7238 15.9615 21.4838 16.3702 21.0833 16.4752C21.0195 16.4917 20.9558 16.5 20.8935 16.5Z" fill="#7E57C2"/>
<path d="M23.25 17.2501C22.836 17.2501 22.5 16.9141 22.5 16.5001C22.5 14.1091 20.6295 12.1366 18.2415 12.0106C17.8275 11.9888 17.5102 11.6356 17.532 11.2223C17.5537 10.8083 17.913 10.4903 18.3203 10.5128C21.5055 10.6808 24 13.3111 24 16.5001C24 16.9141 23.664 17.2501 23.25 17.2501Z" fill="#7E57C2"/>
<path d="M18 3C14.625 3 9.36601 3.3105 6.16201 6.237C3.89701 8.49225 3.00001 11.6557 3.00001 15.75C3.00001 16.089 2.99851 16.467 3.00151 16.875C2.99851 17.2822 3.00001 17.6603 3.00001 17.9993C3.00001 22.0935 3.89701 25.257 6.16201 27.5122C7.38151 28.626 8.90251 29.3588 10.5 29.8418V33.2812C10.5 34.4782 11.2868 34.5 11.4308 34.5H11.4375C11.808 34.4985 12.1283 34.317 12.4493 34.032C12.57 33.9247 13.9643 32.3708 15.4808 30.6713C16.3838 30.729 17.2418 30.75 17.9993 30.75C21.3743 30.75 26.6325 30.4387 29.8373 27.5122C32.1015 25.2577 32.9993 22.0935 32.9993 17.9993C32.9993 17.6603 33.0008 17.2823 32.9978 16.8743C33.0008 16.4663 32.9993 16.089 32.9993 15.7493C32.9993 11.655 32.1023 8.4915 29.8373 6.23625C26.6333 3.3105 21.375 3 18 3ZM30.75 17.7382V17.9993C30.75 21.6788 29.9663 24.186 28.2855 25.8833C25.374 28.5 19.8278 28.5 17.9993 28.5C17.4428 28.5 16.5398 28.4993 15.474 28.425C15.1778 28.758 12 32.3123 12 32.3123V27.915C10.422 27.5363 8.86276 26.9153 7.71451 25.884C6.03376 24.186 5.25001 21.6788 5.25001 17.9993V17.7382C5.25001 17.475 5.24926 17.1908 5.25151 16.8585C5.24926 16.5585 5.24926 16.275 5.25001 16.011V15.75C5.25001 12.0705 6.03376 9.56325 7.71451 7.866C10.6253 5.24925 16.1723 5.24925 18 5.24925C19.8278 5.24925 25.374 5.24925 28.2848 7.866C29.9663 9.56325 30.7493 12.0705 30.7493 15.75V16.011C30.7493 16.2742 30.75 16.5585 30.7478 16.8907C30.75 17.1915 30.75 17.475 30.75 17.7382Z" fill="#7E57C2"/>
</svg>
