<svg width="89" height="88" viewBox="0 0 89 88" fill="none" xmlns="http://www.w3.org/2000/svg">
<rect x="1.45944" y="0.78" width="85.78" height="85.78" rx="8.58" stroke="#F26E22" stroke-width="1.56"/>
<path d="M12.6794 29H48.3891C50.046 29 51.3891 30.3431 51.3891 32V33.4722M51.3891 52V33.4722M51.3891 52H37.1956M51.3891 52H58.4859M19.7762 52H27.6794M51.3891 33.4722H64.0723C65.3603 33.4722 66.5046 34.2944 66.9155 35.5152L67.9364 38.5481C68.0856 38.9914 68.3364 39.3936 68.6687 39.7227L71.7904 42.814C72.3593 43.3774 72.6794 44.1449 72.6794 44.9457V49C72.6794 50.6569 71.3363 52 69.6794 52H66.873M14.6149 37.3056H18.4859M23.6472 37.3056H35.2601M16.5504 43.6944H33.3246" stroke="#F26E22" stroke-width="1.56"/>
<circle cx="32.6794" cy="53" r="4.22" stroke="#F26E22" stroke-width="1.56"/>
<path d="M66.8994 53C66.8994 55.2623 64.8579 57.22 62.1794 57.22C59.501 57.22 57.4594 55.2623 57.4594 53C57.4594 50.7377 59.501 48.78 62.1794 48.78C64.8579 48.78 66.8994 50.7377 66.8994 53Z" stroke="#F26E22" stroke-width="1.56"/>
</svg>
